<?xml version="1.0" encoding="UTF-8" standalone="no"?> <svg width="24" height="24" viewBox="0 0 24 24" xmlns="http://www.w3.org/2000/svg">
<path d="M12 1.44922L8.73242 4.88867L8.72265 4.89848H5.2207C4.25573 4.89848 3.45566 4.42695 3.05664 3.78323L2.63281 3.09769L2.20703 3.78323C1.94322 4.20914 1.76953 4.71176 1.76953 5.25784C1.76953 6.98696 3.35221 8.32034 5.2207 8.32034H7.14258V11.9942H5.2207C4.25573 11.9942 3.45566 11.5227 3.05664 10.8789L2.63281 10.1934L2.20703 10.8789C1.94322 11.3048 1.76953 11.8075 1.76953 12.3536C1.76953 14.0827 3.35221 15.4161 5.2207 15.4161H5.26953V21.5489H3.34375H2.84375V22.5489H3.34375C8.90144 22.5531 14.4663 22.5489 20.0234 22.5489H20.5234V21.5489H20.0234H18.7305V15.4161H18.7793C20.6478 15.4161 22.2305 14.0827 22.2305 12.3536C22.2305 11.8075 22.0568 11.3048 21.793 10.8789L21.3672 10.1934L20.9434 10.8789C20.5443 11.5227 19.7443 11.9942 18.7793 11.9942H16.8574V8.32034H18.7793C20.6478 8.32034 22.2305 6.98696 22.2305 5.25784C22.2305 4.71176 22.0568 4.20914 21.793 3.78323L21.3672 3.09769L20.9434 3.78323C20.5443 4.42695 19.7443 4.89848 18.7793 4.89848H15.2773L15.2675 4.88867L12 1.44922ZM2.87109 4.92383C3.49718 5.48409 4.27367 5.89844 5.2207 5.89844H9.07031L9.11328 5.93946L9.15234 5.89844H14.8477L14.8867 5.93946L14.9297 5.89844H18.7793C19.7263 5.89844 20.5028 5.48409 21.1289 4.92383C21.1537 5.03709 21.2305 5.13945 21.2305 5.25781C21.2305 6.36873 20.182 7.32031 18.7793 7.32031H5.2207C3.81805 7.32031 2.76953 6.36873 2.76953 5.25781C2.76953 5.13945 2.84625 5.03709 2.87109 4.92383V4.92383ZM2.87109 12.0195C3.49718 12.5798 4.27367 12.9941 5.2207 12.9941H7.14258V12.9961H16.8574V12.9941H18.7793C19.7263 12.9941 20.5028 12.5798 21.1289 12.0195C21.1537 12.1328 21.2305 12.2352 21.2305 12.3535C21.2305 13.4644 20.182 14.416 18.7793 14.416H5.2207C3.81805 14.416 2.76953 13.4644 2.76953 12.3535C2.76953 12.2352 2.84625 12.1328 2.87109 12.0195V12.0195ZM9.32031 17.8047H10.3203V18.3047V21.5488H9.32031V18.3047V17.8047ZM13.6797 17.8047H14.6797V18.3047V21.5488H13.6797V18.3047V17.8047Z" />
</svg>
