<?xml version="1.0" encoding="UTF-8" standalone="no"?> <svg xmlns="http://www.w3.org/2000/svg" viewBox="0 0 64 64"><title>Channel, Entertaiment, TV, Television,</title><g id="Layer_25" data-name="Layer 25"><path d="M58,22V50a6,6,0,0,1-6,6H12a6,6,0,0,1-6-6V22a6,6,0,0,1,6-6H52A6,6,0,0,1,58,22ZM30.67,13.49l.09.07.14.1a1.43,1.43,0,0,0,.21.12l.13.07.26.08.12,0A1.58,1.58,0,0,0,32,14h0a1.58,1.58,0,0,0,.38,0l.12,0,.26-.08.13-.07a2.25,2.25,0,0,0,.21-.12l.14-.1.09-.07,9-8a2,2,0,0,0-2.66-3L32,9.32,24.33,2.51a2,2,0,0,0-2.66,3ZM38,58H26a2,2,0,0,0,0,4H38a2,2,0,0,0,0-4Z"/></g></svg>